<svg xmlns:xlink="http://www.w3.org/1999/xlink" width="8.388ex" height="2.509ex" style="font-size: 15px; vertical-align: -0.671ex;" viewBox="0 -791.3 3611.6 1080.4" role="img" focusable="false" xmlns="http://www.w3.org/2000/svg">
<defs>
<path stroke-width="1" id="E1-MJMATHI-6E" d="M21 287Q22 293 24 303T36 341T56 388T89 425T135 442Q171 442 195 424T225 390T231 369Q231 367 232 367L243 378Q304 442 382 442Q436 442 469 415T503 336T465 179T427 52Q427 26 444 26Q450 26 453 27Q482 32 505 65T540 145Q542 153 560 153Q580 153 580 145Q580 144 576 130Q568 101 554 73T508 17T439 -10Q392 -10 371 17T350 73Q350 92 386 193T423 345Q423 404 379 404H374Q288 404 229 303L222 291L189 157Q156 26 151 16Q138 -11 108 -11Q95 -11 87 -5T76 7T74 17Q74 30 112 180T152 343Q153 348 153 366Q153 405 129 405Q91 405 66 305Q60 285 60 284Q58 278 41 278H27Q21 284 21 287Z"></path>
<path stroke-width="1" id="E1-MJMATHI-4D" d="M289 629Q289 635 232 637Q208 637 201 638T194 648Q194 649 196 659Q197 662 198 666T199 671T201 676T203 679T207 681T212 683T220 683T232 684Q238 684 262 684T307 683Q386 683 398 683T414 678Q415 674 451 396L487 117L510 154Q534 190 574 254T662 394Q837 673 839 675Q840 676 842 678T846 681L852 683H948Q965 683 988 683T1017 684Q1051 684 1051 673Q1051 668 1048 656T1045 643Q1041 637 1008 637Q968 636 957 634T939 623Q936 618 867 340T797 59Q797 55 798 54T805 50T822 48T855 46H886Q892 37 892 35Q892 19 885 5Q880 0 869 0Q864 0 828 1T736 2Q675 2 644 2T609 1Q592 1 592 11Q592 13 594 25Q598 41 602 43T625 46Q652 46 685 49Q699 52 704 61Q706 65 742 207T813 490T848 631L654 322Q458 10 453 5Q451 4 449 3Q444 0 433 0Q418 0 415 7Q413 11 374 317L335 624L267 354Q200 88 200 79Q206 46 272 46H282Q288 41 289 37T286 19Q282 3 278 1Q274 0 267 0Q265 0 255 0T221 1T157 2Q127 2 95 1T58 0Q43 0 39 2T35 11Q35 13 38 25T43 40Q45 46 65 46Q135 46 154 86Q158 92 223 354T289 629Z"></path>
<path stroke-width="1" id="E1-MJMAIN-2208" d="M84 250Q84 372 166 450T360 539Q361 539 377 539T419 540T469 540H568Q583 532 583 520Q583 511 570 501L466 500Q355 499 329 494Q280 482 242 458T183 409T147 354T129 306T124 272V270H568Q583 262 583 250T568 230H124V228Q124 207 134 177T167 112T231 48T328 7Q355 1 466 0H570Q583 -10 583 -20Q583 -32 568 -40H471Q464 -40 446 -40T417 -41Q262 -41 172 45Q84 127 84 250Z"></path>
<path stroke-width="1" id="E1-MJAMS-4D" d="M18 666Q18 677 27 680T73 683H146Q261 683 266 679L465 215Q469 215 566 443Q663 676 668 681Q673 683 790 683H908L915 679Q924 664 915 655Q912 648 897 648Q851 639 835 606L833 346Q833 86 835 79Q838 69 849 58T873 41Q877 40 887 38T901 35Q926 35 926 16Q926 6 915 -1H604L597 3Q588 19 597 28Q600 35 615 35Q660 42 673 68L679 79V339Q679 409 679 443T679 520T679 580T677 597Q646 521 584 375T473 117T424 3Q416 -1 410 -1T401 1Q399 3 273 301L148 599L146 343Q146 86 148 79Q152 69 163 58T186 41Q190 40 200 38T215 35Q226 35 235 28Q244 17 235 3L228 -1H28Q17 4 17 17Q17 35 39 35Q84 42 97 68L104 79V639L88 641Q72 644 53 648Q34 648 26 651T18 666ZM457 166Q451 169 449 171T435 198T404 268T344 412L244 648H157L166 637Q169 633 293 346L413 66Q424 88 435 117L457 166ZM817 646Q817 648 766 648H715V72L708 57Q701 45 697 41L695 37Q695 35 757 35H819L813 46Q802 61 800 76Q797 105 797 346L799 612L804 626Q812 638 815 641L817 646ZM124 42Q119 42 119 38Q119 35 128 35Q132 35 132 36Q125 42 124 42Z"></path>
</defs>
<g stroke="currentColor" fill="currentColor" stroke-width="0" transform="matrix(1 0 0 -1 0 0)">
 <use xlink:href="#E1-MJMATHI-6E" x="0" y="0"></use>
 <use transform="scale(0.707)" xlink:href="#E1-MJMATHI-4D" x="849" y="-213"></use>
 <use xlink:href="#E1-MJMAIN-2208" x="1721" y="0"></use>
 <use xlink:href="#E1-MJAMS-4D" x="2667" y="0"></use>
</g>
</svg>